<svg width="40" height="43" viewBox="0 0 40 43" fill="none" xmlns="http://www.w3.org/2000/svg">
<path d="M37.0213 3.37255H31.4894V1.26471C31.4894 0.929285 31.3549 0.607602 31.1155 0.370424C30.876 0.133245 30.5513 0 30.2128 0C29.8742 0 29.5495 0.133245 29.3101 0.370424C29.0707 0.607602 28.9362 0.929285 28.9362 1.26471V3.37255H11.0638V1.26471C11.0638 0.929285 10.9293 0.607602 10.6899 0.370424C10.4505 0.133245 10.1258 0 9.78723 0C9.44866 0 9.12395 0.133245 8.88455 0.370424C8.64514 0.607602 8.51064 0.929285 8.51064 1.26471V3.37255H2.97872C2.18872 3.37255 1.43107 3.68346 0.872448 4.23687C0.313829 4.79029 0 5.54088 0 6.32353V40.049C0 40.8317 0.313829 41.5823 0.872448 42.1357C1.43107 42.6891 2.18872 43 2.97872 43H37.0213C37.8113 43 38.5689 42.6891 39.1276 42.1357C39.6862 41.5823 40 40.8317 40 40.049V6.32353C40 5.54088 39.6862 4.79029 39.1276 4.23687C38.5689 3.68346 37.8113 3.37255 37.0213 3.37255ZM2.97872 5.90196H8.51064V8.0098C8.51064 8.34523 8.64514 8.66691 8.88455 8.90409C9.12395 9.14126 9.44866 9.27451 9.78723 9.27451C10.1258 9.27451 10.4505 9.14126 10.6899 8.90409C10.9293 8.66691 11.0638 8.34523 11.0638 8.0098V5.90196H28.9362V8.0098C28.9362 8.34523 29.0707 8.66691 29.3101 8.90409C29.5495 9.14126 29.8742 9.27451 30.2128 9.27451C30.5513 9.27451 30.876 9.14126 31.1155 8.90409C31.3549 8.66691 31.4894 8.34523 31.4894 8.0098V5.90196H37.0213C37.1341 5.90196 37.2424 5.94638 37.3222 6.02543C37.402 6.10449 37.4468 6.21172 37.4468 6.32353V13.4902H2.55319V6.32353C2.55319 6.21172 2.59802 6.10449 2.67783 6.02543C2.75763 5.94638 2.86587 5.90196 2.97872 5.90196ZM37.0213 40.4706H2.97872C2.86587 40.4706 2.75763 40.4262 2.67783 40.3471C2.59802 40.2681 2.55319 40.1608 2.55319 40.049V16.0196H37.4468V40.049C37.4468 40.1608 37.402 40.2681 37.3222 40.3471C37.2424 40.4262 37.1341 40.4706 37.0213 40.4706ZM22.1277 24.0294C22.1277 24.4463 22.0029 24.8538 21.7691 25.2005C21.5353 25.5471 21.203 25.8173 20.8142 25.9768C20.4254 26.1363 19.9976 26.1781 19.5849 26.0968C19.1722 26.0154 18.7931 25.8147 18.4955 25.5199C18.198 25.2251 17.9953 24.8495 17.9132 24.4406C17.8311 24.0317 17.8733 23.6079 18.0343 23.2228C18.1953 22.8376 18.468 22.5084 18.8179 22.2768C19.1678 22.0452 19.5792 21.9216 20 21.9216C20.5643 21.9216 21.1055 22.1436 21.5045 22.5389C21.9035 22.9342 22.1277 23.4704 22.1277 24.0294ZM31.4894 24.0294C31.4894 24.4463 31.3646 24.8538 31.1308 25.2005C30.897 25.5471 30.5647 25.8173 30.1759 25.9768C29.7871 26.1363 29.3593 26.1781 28.9466 26.0968C28.5339 26.0154 28.1548 25.8147 27.8572 25.5199C27.5597 25.2251 27.357 24.8495 27.2749 24.4406C27.1928 24.0317 27.235 23.6079 27.396 23.2228C27.557 22.8376 27.8297 22.5084 28.1796 22.2768C28.5295 22.0452 28.9409 21.9216 29.3617 21.9216C29.926 21.9216 30.4672 22.1436 30.8662 22.5389C31.2652 22.9342 31.4894 23.4704 31.4894 24.0294ZM12.766 32.4608C12.766 32.8777 12.6412 33.2852 12.4074 33.6318C12.1736 33.9785 11.8413 34.2486 11.4525 34.4082C11.0637 34.5677 10.6359 34.6095 10.2232 34.5281C9.81049 34.4468 9.43137 34.246 9.13382 33.9513C8.83626 33.6565 8.63362 33.2809 8.55152 32.872C8.46942 32.4631 8.51156 32.0393 8.6726 31.6542C8.83364 31.269 9.10634 30.9398 9.45623 30.7082C9.80613 30.4766 10.2175 30.3529 10.6383 30.3529C11.2026 30.3529 11.7438 30.575 12.1428 30.9703C12.5418 31.3656 12.766 31.9018 12.766 32.4608ZM22.1277 32.4608C22.1277 32.8777 22.0029 33.2852 21.7691 33.6318C21.5353 33.9785 21.203 34.2486 20.8142 34.4082C20.4254 34.5677 19.9976 34.6095 19.5849 34.5281C19.1722 34.4468 18.7931 34.246 18.4955 33.9513C18.198 33.6565 17.9953 33.2809 17.9132 32.872C17.8311 32.4631 17.8733 32.0393 18.0343 31.6542C18.1953 31.269 18.468 30.9398 18.8179 30.7082C19.1678 30.4766 19.5792 30.3529 20 30.3529C20.5643 30.3529 21.1055 30.575 21.5045 30.9703C21.9035 31.3656 22.1277 31.9018 22.1277 32.4608ZM31.4894 32.4608C31.4894 32.8777 31.3646 33.2852 31.1308 33.6318C30.897 33.9785 30.5647 34.2486 30.1759 34.4082C29.7871 34.5677 29.3593 34.6095 28.9466 34.5281C28.5339 34.4468 28.1548 34.246 27.8572 33.9513C27.5597 33.6565 27.357 33.2809 27.2749 32.872C27.1928 32.4631 27.235 32.0393 27.396 31.6542C27.557 31.269 27.8297 30.9398 28.1796 30.7082C28.5295 30.4766 28.9409 30.3529 29.3617 30.3529C29.926 30.3529 30.4672 30.575 30.8662 30.9703C31.2652 31.3656 31.4894 31.9018 31.4894 32.4608Z" fill="white"/>
</svg>
