<svg width="53" height="52" viewBox="0 0 53 52" fill="none" xmlns="http://www.w3.org/2000/svg">
<path d="M8.22754 0.25L8.41406 0.257812C8.84766 0.295913 9.26124 0.466222 9.59766 0.74707C9.982 1.06803 10.2415 1.51416 10.3311 2.00684L11.7295 9.69336H49.6055C49.9185 9.69331 50.2281 9.76196 50.5117 9.89453C50.795 10.0269 51.0455 10.2202 51.2461 10.46L51.3877 10.6475C51.5181 10.8419 51.6158 11.057 51.6768 11.2842C51.7581 11.5873 51.7718 11.9049 51.7168 12.2139V12.2148L48.8457 27.999C48.5981 29.3622 47.88 30.5955 46.8164 31.4834C45.753 32.3711 44.4116 32.8571 43.0264 32.8574H15.9395L16.6348 36.6777C16.7034 37.0553 16.9017 37.3976 17.1963 37.6436C17.4908 37.8894 17.8625 38.0233 18.2461 38.0234H41.1064C42.4632 38.0234 43.7898 38.4259 44.918 39.1797C46.0461 39.9335 46.9251 41.0053 47.4443 42.2588C47.9636 43.5124 48.0997 44.8919 47.835 46.2227C47.5703 47.5534 46.9173 48.7759 45.958 49.7354C44.9986 50.6947 43.776 51.3485 42.4453 51.6133C41.1146 51.878 39.735 51.7418 38.4814 51.2227C37.2279 50.7034 36.1562 49.8235 35.4023 48.6953C34.6486 47.5672 34.2461 46.2405 34.2461 44.8838C34.2449 43.9967 34.4181 43.1195 34.7529 42.3008H24.7949C25.2225 43.35 25.3859 44.4905 25.2646 45.6211C25.1295 46.881 24.6474 48.079 23.873 49.082C23.0988 50.0848 22.0623 50.8541 20.8779 51.3037C19.6933 51.7534 18.4069 51.8655 17.1621 51.6289C15.9173 51.3923 14.7622 50.8158 13.8252 49.9629C12.8882 49.1099 12.2058 48.014 11.8535 46.7969C11.5013 45.5798 11.4926 44.2889 11.8291 43.0674C12.1452 41.9201 12.7538 40.8754 13.5938 40.0361C13.0009 39.2795 12.5983 38.3906 12.4268 37.4424L6.42969 4.52734H2.38867C1.82146 4.52734 1.27705 4.30245 0.875977 3.90137C0.474908 3.50029 0.25 2.95588 0.25 2.38867C0.250005 1.82146 0.474901 1.27705 0.875977 0.875977C1.27705 0.474897 1.82146 0.250002 2.38867 0.25H8.22754ZM18.4424 42.3008C17.9317 42.3008 17.4325 42.4527 17.0078 42.7363C16.5831 43.0201 16.2512 43.4236 16.0557 43.8955C15.8602 44.3675 15.8095 44.8876 15.9092 45.3887C16.0089 45.8895 16.2551 46.3498 16.6162 46.7109C16.9774 47.0721 17.4375 47.3183 17.9385 47.418C18.4395 47.5176 18.9587 47.466 19.4307 47.2705C19.9026 47.075 20.306 46.744 20.5898 46.3193C20.8737 45.8946 21.0254 45.3947 21.0254 44.8838C21.0253 44.1989 20.7529 43.5419 20.2686 43.0576C19.7842 42.5734 19.1273 42.3008 18.4424 42.3008ZM41.1064 42.3008C40.5958 42.3008 40.0965 42.4527 39.6719 42.7363C39.2471 43.0201 38.9152 43.4235 38.7197 43.8955C38.5242 44.3675 38.4736 44.8876 38.5732 45.3887C38.673 45.8895 38.9191 46.3498 39.2803 46.7109C39.6415 47.0721 40.1016 47.3183 40.6025 47.418C41.1035 47.5176 41.6228 47.4659 42.0947 47.2705C42.5666 47.075 42.9701 46.744 43.2539 46.3193C43.5377 45.8946 43.6895 45.3947 43.6895 44.8838C43.6893 44.1989 43.4169 43.5419 42.9326 43.0576C42.4482 42.5734 41.7914 42.3008 41.1064 42.3008ZM15.1621 28.5801H43.0195C43.4043 28.5815 43.7774 28.4472 44.0732 28.2012C44.3691 27.9551 44.5689 27.613 44.6377 27.2344L47.042 13.9707H12.5068L15.1621 28.5801Z" fill="#781118" stroke="#781118" stroke-width="0.5"/>
<path d="M26.9699 20.545C26.9699 20.455 26.9849 20.365 27.0299 20.275L27.0449 20.26L27.0599 19.915L27.0749 19.765C27.0749 19.705 27.0749 19.69 27.0899 19.63L27.1799 19.33L27.2099 19.15L27.3449 18.79L27.3599 18.64L27.4799 18.34L27.5399 18.13L27.6599 17.86L27.7049 17.77C27.7349 17.71 27.7799 17.65 27.8249 17.59L27.9749 17.425L28.1099 17.275L28.3649 16.96C28.4099 16.885 28.4549 16.81 28.5299 16.735L28.6649 16.6L28.7849 16.48L28.9499 16.315C29.0399 16.225 29.1299 16.18 29.2349 16.135L29.2799 16.12L29.5799 15.955L29.7749 15.865L30.1049 15.745L30.2549 15.7L30.5999 15.625L30.6299 15.61C30.7049 15.58 30.7949 15.55 30.8699 15.55L31.1399 15.535L31.3199 15.55L31.5149 15.52L31.5749 15.505C31.6349 15.505 31.6799 15.505 31.7399 15.52L31.8749 15.535L32.0549 15.55C32.1599 15.565 32.2649 15.595 32.3549 15.655L32.7599 15.76L32.9249 15.82L33.2549 15.94L33.2999 15.955C33.3749 15.985 33.4499 16 33.5249 16.06L33.7199 16.21L33.8249 16.27L34.0799 16.51L34.2149 16.615L34.4849 16.855L34.6349 16.99L34.7999 17.155C34.8449 17.2 34.8899 17.245 34.9199 17.305L34.9499 17.35L35.0849 17.545C35.1149 17.59 35.1449 17.62 35.1599 17.68L35.1899 17.77L35.3249 18.07L35.3849 18.25L35.4449 18.37L35.5349 18.55C35.5649 18.625 35.5949 18.715 35.6099 18.79V18.835L35.7299 19.135L35.7749 19.195C35.8199 19.255 35.8499 19.33 35.8649 19.42L35.9099 19.63L35.9399 19.81L36.0149 20.17V20.35L36.0299 20.74L36.0149 20.905L36.0299 21.1V21.265L36.0149 21.475L35.9999 21.805L35.9699 21.97L35.8949 22.315L35.8799 22.495L35.7899 22.87L35.7449 23.095L35.6699 23.41L35.5949 23.605L35.5199 23.86C35.5049 23.905 35.4749 23.95 35.4599 23.98L35.4149 24.07L35.3249 24.31C35.2949 24.4 35.2499 24.46 35.2049 24.52L35.1449 24.58L35.0099 24.82C34.9949 24.85 34.9649 24.88 34.9499 24.91L34.8449 25.045L34.6799 25.255L34.5899 25.345C34.5749 25.36 34.5599 25.375 34.5299 25.405L34.2599 25.615L34.1249 25.795L33.7649 26.05C33.7349 26.08 33.6899 26.095 33.6599 26.11L33.4049 26.245L33.2249 26.35L32.9249 26.485L32.4749 26.62C32.4449 26.635 32.3999 26.65 32.3699 26.65L32.3099 26.665L32.1299 26.68L31.9949 26.71C31.8899 26.74 31.7399 26.74 31.6349 26.71L31.6049 26.695L31.4099 26.725H31.3949C31.3199 26.725 31.2449 26.725 31.1699 26.71L31.0799 26.68L30.7499 26.665L30.6149 26.635C30.5699 26.62 30.5399 26.62 30.5099 26.605L30.2099 26.5C30.1199 26.515 29.9999 26.485 29.8499 26.395L29.7449 26.335L29.5499 26.23L29.2349 26.05L28.8749 25.78L28.7849 25.72C28.7399 25.69 28.6949 25.645 28.6649 25.615L28.4249 25.375L28.3199 25.255L28.1099 24.985L28.0649 24.94C28.0199 24.88 27.9899 24.835 27.9599 24.775L27.8399 24.55L27.7499 24.37L27.6299 24.19C27.5849 24.13 27.5399 24.04 27.5249 23.965V23.92L27.4199 23.77C27.3749 23.68 27.3449 23.62 27.3299 23.515V23.47L27.2249 23.11L27.1349 22.93L27.0899 22.675C27.0749 22.615 27.0749 22.555 27.0749 22.495V22.39L26.9999 22.015L26.9849 21.85L26.9399 21.49V21.415C26.9399 21.34 26.9549 21.295 26.9699 21.235L26.9849 21.145L26.9699 21.055C26.9549 20.965 26.9549 20.89 26.9549 20.815V20.785L26.9699 20.545ZM29.8199 21.7L29.8349 21.88L29.8499 22.15C29.8499 22.18 29.8499 22.24 29.8499 22.27L29.8349 22.405L29.9249 22.705L29.9699 22.885L30.1049 23.26L30.1949 23.38L30.3749 23.71L30.5249 23.8L30.8249 24.055L31.1699 24.175L31.3349 24.16H31.3949C31.4549 24.145 31.5299 24.13 31.5899 24.13L31.6649 24.145L31.8149 24.115L32.1299 24.01L32.2949 23.92L32.4599 23.755C32.4899 23.71 32.5349 23.68 32.5649 23.65L32.6099 23.62L32.7599 23.365L32.8349 23.2L32.9249 22.945L33.0299 22.765L33.1349 22.495V22.3V22.045C33.1349 22 33.1349 21.925 33.1499 21.88L33.1799 21.79L33.1649 21.415L33.1799 21.22V21.13C33.1799 21.1 33.1799 21.04 33.1949 21.01L33.2249 20.905L33.1799 20.725L33.1649 20.38L33.1499 20.23L33.0899 19.9L33.0749 19.72L33.0449 19.465L32.9399 19.285L32.8199 19.03L32.7449 18.895L32.5649 18.61L32.4299 18.49L32.2049 18.25L32.0999 18.13L31.8149 18.04L31.6049 18.055L31.5149 18.085C31.4549 18.1 31.3649 18.13 31.2899 18.13H31.1849L30.8399 18.235L30.5249 18.475L30.3749 18.64L30.1799 18.91L30.1349 19.045L30.0149 19.315L29.9099 19.495L29.8049 19.81L29.7599 19.96L29.7299 20.365L29.7449 20.725L29.7299 20.89L29.7449 21.04L29.7749 21.25L29.8049 21.415L29.8199 21.7Z" fill="#781118"/>
</svg>
