<svg width="52" height="52" viewBox="0 0 52 52" fill="none" xmlns="http://www.w3.org/2000/svg">
<path d="M8.22754 0.25L8.41406 0.257812C8.84766 0.295913 9.26124 0.466222 9.59766 0.74707C9.982 1.06803 10.2415 1.51416 10.3311 2.00684L11.7295 9.69336H49.6055C49.9185 9.69331 50.2281 9.76196 50.5117 9.89453C50.795 10.0269 51.0455 10.2202 51.2461 10.46L51.3877 10.6475C51.5181 10.8419 51.6158 11.057 51.6768 11.2842C51.7581 11.5873 51.7718 11.9049 51.7168 12.2139V12.2148L48.8457 27.999C48.5981 29.3622 47.88 30.5955 46.8164 31.4834C45.753 32.3711 44.4116 32.8571 43.0264 32.8574H15.9395L16.6348 36.6777C16.7034 37.0553 16.9017 37.3976 17.1963 37.6436C17.4908 37.8894 17.8625 38.0233 18.2461 38.0234H41.1064C42.4632 38.0234 43.7898 38.4259 44.918 39.1797C46.0461 39.9335 46.9251 41.0053 47.4443 42.2588C47.9636 43.5124 48.0997 44.8919 47.835 46.2227C47.5703 47.5534 46.9173 48.7759 45.958 49.7354C44.9986 50.6947 43.776 51.3485 42.4453 51.6133C41.1146 51.878 39.735 51.7418 38.4814 51.2227C37.2279 50.7034 36.1562 49.8235 35.4023 48.6953C34.6486 47.5672 34.2461 46.2405 34.2461 44.8838C34.2449 43.9967 34.4181 43.1195 34.7529 42.3008H24.7949C25.2225 43.35 25.3859 44.4905 25.2646 45.6211C25.1295 46.881 24.6474 48.079 23.873 49.082C23.0988 50.0848 22.0623 50.8541 20.8779 51.3037C19.6933 51.7534 18.4069 51.8655 17.1621 51.6289C15.9173 51.3923 14.7622 50.8158 13.8252 49.9629C12.8882 49.1099 12.2058 48.014 11.8535 46.7969C11.5013 45.5798 11.4926 44.2889 11.8291 43.0674C12.1452 41.9201 12.7538 40.8754 13.5938 40.0361C13.0009 39.2795 12.5983 38.3906 12.4268 37.4424L6.42969 4.52734H2.38867C1.82146 4.52734 1.27705 4.30245 0.875977 3.90137C0.474908 3.50029 0.25 2.95588 0.25 2.38867C0.250005 1.82146 0.474901 1.27705 0.875977 0.875977C1.27705 0.474897 1.82146 0.250002 2.38867 0.25H8.22754ZM18.4424 42.3008C17.9317 42.3008 17.4325 42.4527 17.0078 42.7363C16.5831 43.0201 16.2512 43.4236 16.0557 43.8955C15.8602 44.3675 15.8095 44.8876 15.9092 45.3887C16.0089 45.8895 16.2551 46.3498 16.6162 46.7109C16.9774 47.0721 17.4375 47.3183 17.9385 47.418C18.4395 47.5176 18.9587 47.466 19.4307 47.2705C19.9026 47.075 20.306 46.744 20.5898 46.3193C20.8737 45.8946 21.0254 45.3947 21.0254 44.8838C21.0253 44.1989 20.7529 43.5419 20.2686 43.0576C19.7842 42.5734 19.1273 42.3008 18.4424 42.3008ZM41.1064 42.3008C40.5958 42.3008 40.0965 42.4527 39.6719 42.7363C39.2471 43.0201 38.9152 43.4235 38.7197 43.8955C38.5242 44.3675 38.4736 44.8876 38.5732 45.3887C38.673 45.8895 38.9191 46.3498 39.2803 46.7109C39.6415 47.0721 40.1016 47.3183 40.6025 47.418C41.1035 47.5176 41.6228 47.4659 42.0947 47.2705C42.5666 47.075 42.9701 46.744 43.2539 46.3193C43.5377 45.8946 43.6895 45.3947 43.6895 44.8838C43.6893 44.1989 43.4169 43.5419 42.9326 43.0576C42.4482 42.5734 41.7914 42.3008 41.1064 42.3008ZM15.1621 28.5801H43.0195C43.4043 28.5815 43.7774 28.4472 44.0732 28.2012C44.3691 27.9551 44.5689 27.613 44.6377 27.2344L47.042 13.9707H12.5068L15.1621 28.5801Z" fill="#781118" stroke="#781118" stroke-width="0.5"/>
<path d="M27.0154 15.76C27.0754 15.715 27.1654 15.7 27.3004 15.7C27.3304 15.7 27.3604 15.7 27.3754 15.7L27.7354 15.745L27.9154 15.7L28.0654 15.715L28.2604 15.7H28.6204H28.8304L29.0704 15.685C29.1454 15.685 29.2204 15.685 29.2954 15.7H29.3104L29.5804 15.67C29.6104 15.67 29.6704 15.67 29.7004 15.67L30.1654 15.7L30.3754 15.715H30.7354C30.7354 15.715 30.8404 15.805 30.9304 15.895C31.0504 16 31.0804 16.18 31.0804 16.33V16.36C31.0804 16.45 31.0804 16.495 31.0654 16.585L31.0354 16.675L31.0804 16.9C31.0954 16.975 31.0954 17.08 31.0804 17.155V17.17V17.56L31.0954 17.74L31.0804 18.07V18.25L31.1254 18.595L31.1404 18.73C31.1404 18.775 31.1554 18.805 31.1554 18.85V19.045C31.1554 19.105 31.1404 19.135 31.1254 19.195L31.1104 19.285L31.0504 19.63C31.0804 19.75 31.0954 19.84 31.0654 19.93V20.29L31.0804 20.44L31.1104 20.77L31.1254 20.83C31.1404 20.905 31.1554 20.98 31.1554 21.055V21.16C31.1554 21.235 31.1554 21.325 31.1254 21.4L31.0954 21.49V21.76C31.0954 21.805 31.0954 21.88 31.0804 21.925L31.0654 21.985L31.0804 22.06C31.0954 22.135 31.1104 22.225 31.0954 22.315L31.0654 22.51L31.1104 22.87L31.0954 23.08V23.44L31.0804 23.575L31.1104 23.95V24.115L31.1254 24.37C31.1254 24.43 31.1254 24.52 31.1104 24.58L31.0954 24.655L31.0804 25.015L31.1104 25.18L31.0804 25.525L31.0954 25.705L31.0504 26.11C31.0504 26.11 30.9154 26.32 30.7954 26.425C30.7204 26.485 30.6154 26.5 30.5254 26.5H30.4204C30.3754 26.5 30.3004 26.5 30.2554 26.485H30.2104L29.8654 26.47H29.6854L29.3854 26.5C29.3254 26.515 29.2804 26.515 29.2204 26.5L29.1304 26.485H28.7554C28.7554 26.485 28.4254 26.305 28.3504 26.185C28.3354 26.155 28.3354 26.14 28.3354 26.095L28.3204 25.885C28.3204 25.81 28.3054 25.78 28.3204 25.705L28.3504 25.585L28.3804 25.24L28.3354 25.06L28.3654 24.73L28.3354 24.52L28.3804 24.19L28.3504 24.04L28.3804 23.665V23.5L28.3504 23.245C28.3504 23.185 28.3504 23.125 28.3504 23.065L28.3654 22.975L28.4104 22.63L28.3804 22.435L28.3654 22.225C28.3654 22.135 28.3654 22.09 28.3804 22L28.3954 21.955L28.4104 21.58L28.3954 21.4V21.055V20.89L28.4104 20.515L28.3354 20.335L28.3204 19.93V19.87C28.3054 19.795 28.3054 19.765 28.3054 19.69L28.3354 19.435V19.27L28.4104 18.925L28.4254 18.805V18.445L28.4104 18.25L28.2004 18.055L27.9004 18.085C27.8404 18.085 27.7804 18.085 27.7204 18.07L27.4654 18.025L27.3154 18.01C27.2554 17.995 27.1954 17.98 27.1354 17.95C27.0154 17.86 26.9554 17.755 26.9254 17.65C26.9254 17.62 26.9104 17.605 26.9104 17.56L26.8954 17.365C26.8954 17.305 26.8804 17.26 26.8954 17.2L26.9254 17.05L26.9704 16.675V16.54L26.9254 16.165L26.9104 16.06C26.9104 16.015 26.9104 15.97 26.9104 15.925L26.9254 15.835L27.0154 15.76Z" fill="#781118"/>
</svg>
